# This file uses centimeters as units for non-parametric coordinates.

mtllib Crystal_2.mtl
g default
v -1.063402 3.024816 0.077129
v 0.006870 3.024816 0.077129
v 1.077143 3.024816 0.077129
v -0.336253 4.071632 0.077129
v 0.006870 4.557374 0.077129
v 0.349993 4.071632 0.077129
v -0.336253 4.071632 -0.077129
v 0.006870 4.557374 -0.077129
v 0.349993 4.071632 -0.077129
v -1.063402 3.024816 -0.077129
v 0.006870 3.024816 -0.077129
v 1.077143 3.024816 -0.077129
v 0.542006 3.024816 0.077129
v 0.178431 4.314503 0.077129
v 0.178431 4.314503 -0.077129
v 0.542006 3.024816 -0.077129
v -0.528266 3.024816 0.077129
v -0.164691 4.314503 0.077129
v -0.164691 4.314503 -0.077129
v -0.528266 3.024816 -0.077129
v 0.006870 1.663076 -0.077129
v 0.542006 1.663076 -0.077129
v 0.542006 1.663076 0.077130
v 0.006870 1.663076 0.077129
v -0.528266 1.663076 -0.077129
v -0.528266 1.663076 0.077129
vt 0.421059 0.582980
vt 0.706020 0.700557
vt 0.773527 0.680823
vt 0.706853 0.662315
vt 0.249027 0.318766
vt 0.373541 0.320677
vt 0.336739 0.667608
vt 0.840201 0.699332
vt 0.790790 0.617049
vt 0.830728 0.560542
vt 0.710944 0.617028
vt 0.750853 0.673555
vt 0.875472 0.316955
vt 0.492844 0.115876
vt 0.409049 0.310242
vt 0.750944 0.316923
vt 0.127654 0.663289
vt 0.516654 0.012190
vt 0.378404 0.003833
vt 0.253891 0.001921
vt 0.498054 0.322589
vt 0.615708 0.058500
vt 0.671036 0.560501
vt 0.366015 0.604911
vt 0.000000 0.685655
vt 0.875553 0.000073
vt 0.129377 0.000010
vt 0.123813 0.698979
vt 0.388850 0.667302
vt 0.751024 0.000042
vt 0.124514 0.316854
vt 0.615778 0.096010
vt 0.482891 0.000000
vt 0.498694 0.114211
vt 0.626496 0.000010
vt 0.626415 0.316892
vt 0.763925 0.715412
vt 0.339988 0.745493
vt 0.204502 0.618232
vt 0.243553 0.675356
vt 0.501887 0.316860
vt 0.369264 0.682796
vt 0.398541 0.620099
vt 0.284339 0.619458
vt 0.325124 0.563560
vt 0.491506 0.336166
vt 0.697251 0.696903
vt 1.000000 0.316987
vt 0.000000 0.314943
vt 0.165452 0.561109
vt 0.003841 0.649964
vt 0.396588 0.632249
vt 0.251467 0.676614
vt 0.247626 0.712304
vt 0.698282 0.735610
vt 0.621504 0.131446
vt 0.492844 0.078795
vt 0.375285 0.298052
vt 0.524031 0.351353
vt 0.621558 0.093917
vt 0.411457 0.617569
vt 0.498571 0.151313
vt 0.307463 0.730305
vt 0.830599 0.733920
vn -0.000000 0.000000 1.000000
vn -0.000000 0.000000 1.000000
vn 0.000000 0.000000 1.000000
vn -0.000000 0.000000 1.000000
vn -0.000000 0.000000 1.000000
vn -0.000000 0.000000 1.000000
vn -0.000000 0.000000 1.000000
vn -0.000000 0.000000 1.000000
vn -0.816773 0.576959 0.000000
vn -0.816773 0.576959 0.000000
vn -0.816773 0.576959 0.000000
vn -0.816773 0.576959 0.000000
vn 0.000000 1.000000 0.000000
vn 0.816773 0.576959 0.000000
vn 0.816773 0.576959 0.000000
vn 0.000000 1.000000 0.000000
vn -0.000000 0.000000 -1.000000
vn 0.000000 0.000000 -1.000000
vn 0.000000 -0.000000 -1.000000
vn -0.000000 0.000000 -1.000000
vn 0.000000 0.000000 -1.000000
vn -0.000000 0.000000 -1.000000
vn 0.000000 -0.000000 -1.000000
vn 0.000000 -0.000000 -1.000000
vn 0.000000 -1.000000 0.000000
vn 0.000000 -1.000000 0.000000
vn 0.000000 -1.000000 0.000000
vn 0.000000 -1.000000 0.000000
vn 0.000000 -1.000000 -0.000000
vn 0.000000 -1.000000 -0.000000
vn 0.000000 -1.000000 -0.000000
vn 0.000000 -1.000000 -0.000000
vn 0.821299 0.570499 0.000000
vn 0.821299 0.570499 0.000000
vn 0.821299 0.570499 0.000000
vn 0.821299 0.570499 0.000000
vn -0.821299 0.570499 0.000000
vn -0.821299 0.570499 0.000000
vn -0.821299 0.570499 0.000000
vn -0.821299 0.570499 0.000000
vn 0.000000 0.000000 1.000000
vn 0.000000 0.000000 1.000000
vn 0.816773 0.576959 0.000000
vn 0.816773 0.576959 0.000000
vn 0.000000 0.000000 -1.000000
vn 0.000000 0.000000 -1.000000
vn 0.000000 -1.000000 0.000000
vn 0.000000 -1.000000 0.000000
vn 0.000000 -1.000000 0.000000
vn 0.000000 -1.000000 0.000000
vn 0.000000 -1.000000 0.000000
vn 0.000000 -1.000000 0.000000
vn 0.000000 -0.000000 -1.000000
vn 0.000000 -0.000000 -1.000000
vn 1.000000 0.000000 0.000000
vn 1.000000 0.000000 0.000000
vn 1.000000 0.000000 0.000000
vn 1.000000 0.000000 0.000000
vn -0.000000 0.000000 1.000000
vn -0.000000 0.000000 1.000000
vn -1.000000 0.000000 0.000000
vn -1.000000 0.000000 0.000000
vn -1.000000 0.000000 0.000000
vn -1.000000 0.000000 0.000000
vn 0.000000 -0.000000 -1.000000
vn -0.000000 0.000000 1.000000
s 1
g Crystal_Arrow
usemtl lambert4SG
f 1/49/1 17/31/2 18/39/3 4/50/4
f 2/5/5 13/6/6 14/44/7 5/40/8
s 3
f 4/4/9 18/3/10 19/37/11 7/47/12
f 5/63/13 14/7/14 15/42/15 8/38/16
s 5
f 7/10/17 19/9/18 20/13/19 10/48/20
f 8/12/21 15/11/22 16/36/23 11/16/24
s off
f 10/14/25 20/32/26 17/56/27 1/62/28
s 7
f 21/17/29 22/53/30 23/54/31 24/28/32
s off
f 3/46/33 12/59/34 9/43/35 6/24/36
f 10/61/37 1/1/38 4/4/39 7/47/40
s 1
f 14/44/7 13/6/6 3/21/41 6/45/42
s 3
f 15/42/15 14/7/14 6/24/43 9/43/44
s 5
f 16/36/23 15/11/22 9/23/45 12/41/46
s off
f 13/34/47 16/57/48 12/22/49 3/60/50
s 1
f 18/39/3 17/31/2 2/5/5 5/40/8
s 3
f 19/37/11 18/3/10 5/8/13 8/64/16
s 5
f 20/13/19 19/9/18 8/12/21 11/16/24
s 7
f 26/25/51 25/51/52 21/17/29 24/28/32
s 5
f 11/16/24 16/36/23 22/35/53 21/30/54
s off
f 16/15/55 13/58/56 23/33/57 22/18/58
s 1
f 13/6/6 2/5/5 24/20/59 23/19/60
s off
f 17/2/61 20/55/62 25/29/63 26/52/64
s 5
f 20/13/19 11/16/24 21/30/54 25/26/65
s 1
f 2/5/5 17/31/2 26/27/66 24/20/59
g default
v 0.544462 1.084208 -1.007440
v -0.562397 1.143118 -1.056469
v -1.094177 1.070839 0.073177
v -0.361390 1.128735 1.338518
v 0.878659 1.139907 1.511121
v 1.186337 0.999475 0.276747
v 0.768353 3.097605 -1.532263
v -0.951796 3.067400 -1.532264
v -1.812403 3.050765 -0.024617
v -0.761513 3.429806 1.512828
v 1.467275 3.178203 1.616895
v 1.921751 3.052341 0.041588
v 0.536209 4.904164 -1.083474
v -0.674897 4.695969 -1.083474
v -1.268578 4.810536 -0.002018
v -0.670841 4.845327 1.064306
v 0.636213 4.964598 1.064761
v 1.131829 5.064231 -0.001075
v 0.003299 0.004744 0.240335
v -0.060255 5.918291 0.000000
vt 0.708574 0.151060
vt 0.811386 0.158887
vt 0.835422 0.332237
vt 0.684027 0.333191
vt 0.904109 0.103696
vt 0.000000 0.325238
vt 0.207728 0.147982
vt 0.163680 0.354599
vt 0.315664 0.157777
vt 0.367718 0.328917
vt 0.412673 0.091594
vt 0.506706 0.315426
vt 0.819372 0.480411
vt 0.704952 0.493572
vt 0.072516 0.527939
vt 0.181589 0.485821
vt 0.304532 0.494548
vt 0.597957 0.548133
vt 0.759807 0.000000
vt 0.241151 0.632929
vt 0.401791 0.555990
vt 0.754446 0.634415
vt 0.916996 0.529738
vt 0.247008 0.000000
vt 0.602279 0.084802
vt 0.079027 0.096295
vt 0.506039 0.328658
vt 1.000000 0.328881
vn 0.014315 -0.245696 -0.969241
vn 0.014315 -0.245696 -0.969241
vn 0.014315 -0.245696 -0.969241
vn 0.014315 -0.245696 -0.969241
vn -0.838110 -0.304288 -0.452748
vn -0.838110 -0.304288 -0.452748
vn -0.838110 -0.304288 -0.452748
vn -0.838110 -0.304288 -0.452748
vn -0.806927 -0.220591 0.547913
vn -0.806927 -0.220591 0.547913
vn -0.806927 -0.220591 0.547912
vn -0.806927 -0.220591 0.547913
vn -0.083531 -0.060572 0.994663
vn -0.083531 -0.060572 0.994663
vn -0.083531 -0.060572 0.994663
vn -0.083531 -0.060572 0.994663
vn 0.916974 -0.288032 0.276037
vn 0.916974 -0.288032 0.276037
vn 0.916974 -0.288032 0.276037
vn 0.916974 -0.288032 0.276037
vn 0.805253 -0.286951 -0.518871
vn 0.805253 -0.286951 -0.518871
vn 0.805253 -0.286951 -0.518871
vn 0.805253 -0.286951 -0.518871
vn -0.020577 0.253004 -0.967246
vn -0.020577 0.253004 -0.967246
vn -0.020577 0.253004 -0.967246
vn -0.020577 0.253004 -0.967246
vn -0.835350 0.269032 -0.479388
vn -0.835350 0.269032 -0.479388
vn -0.835350 0.269032 -0.479388
vn -0.835350 0.269032 -0.479388
vn -0.837859 0.233604 0.493378
vn -0.837859 0.233604 0.493378
vn -0.837859 0.233604 0.493378
vn -0.837859 0.233604 0.493378
vn -0.017218 0.294617 0.955460
vn -0.017218 0.294617 0.955460
vn -0.017218 0.294617 0.955460
vn -0.017218 0.294617 0.955460
vn 0.857921 0.413818 0.304509
vn 0.857921 0.413818 0.304508
vn 0.857922 0.413818 0.304508
vn 0.857922 0.413818 0.304508
vn 0.798550 0.270914 -0.537517
vn 0.798550 0.270914 -0.537517
vn 0.798550 0.270914 -0.537517
vn 0.798550 0.270914 -0.537517
vn -0.011022 -0.753854 -0.656949
vn -0.011022 -0.753854 -0.656949
vn -0.011022 -0.753854 -0.656949
vn -0.627979 -0.699836 -0.340399
vn -0.627979 -0.699836 -0.340399
vn -0.627979 -0.699836 -0.340399
vn -0.665910 -0.620593 0.414039
vn -0.665910 -0.620593 0.414039
vn -0.665910 -0.620593 0.414039
vn -0.090676 -0.710865 0.697459
vn -0.090676 -0.710865 0.697459
vn -0.090676 -0.710865 0.697459
vn 0.620485 -0.746716 0.239613
vn 0.620485 -0.746716 0.239613
vn 0.620485 -0.746716 0.239613
vn 0.608865 -0.711267 -0.351259
vn 0.608865 -0.711267 -0.351259
vn 0.608865 -0.711267 -0.351259
vn -0.118859 0.691425 -0.712604
vn -0.118859 0.691425 -0.712604
vn -0.118859 0.691425 -0.712604
vn -0.616134 0.672815 -0.409512
vn -0.616134 0.672815 -0.409512
vn -0.616133 0.672815 -0.409512
vn -0.637143 0.694376 0.334500
vn -0.637143 0.694376 0.334500
vn -0.637143 0.694376 0.334500
vn -0.066069 0.721397 0.689363
vn -0.066069 0.721397 0.689363
vn -0.066069 0.721397 0.689363
vn 0.550429 0.767868 0.327730
vn 0.550429 0.767868 0.327730
vn 0.550429 0.767868 0.327730
vn 0.532725 0.744076 -0.403181
vn 0.532725 0.744076 -0.403181
vn 0.532725 0.744076 -0.403181
s off
g Crystal_Body
usemtl lambert2SG
f 27/65/67 28/66/68 34/67/69 33/68/70
f 28/66/71 29/69/72 35/92/73 34/67/74
f 29/90/75 30/71/76 36/72/77 35/70/78
f 30/71/79 31/73/80 37/74/81 36/72/82
f 31/73/83 32/75/84 38/91/85 37/74/86
f 32/89/87 27/65/88 33/68/89 38/76/90
f 33/68/91 34/67/92 40/77/93 39/78/94
f 34/67/95 35/92/96 41/87/97 40/77/98
f 35/70/99 36/72/100 42/80/101 41/79/102
f 36/72/103 37/74/104 43/81/105 42/80/106
f 37/74/107 38/91/108 44/85/109 43/81/110
f 38/76/111 33/68/112 39/78/113 44/82/114
f 28/66/115 27/65/116 45/83/117
f 29/69/118 28/66/119 45/83/120
f 30/71/121 29/90/122 45/88/123
f 31/73/124 30/71/125 45/88/126
f 32/75/127 31/73/128 45/88/129
f 27/65/130 32/89/131 45/83/132
f 39/78/133 40/77/134 46/86/135
f 40/77/136 41/87/137 46/86/138
f 41/79/139 42/80/140 46/84/141
f 42/80/142 43/81/143 46/84/144
f 43/81/145 44/85/146 46/84/147
f 44/82/148 39/78/149 46/86/150
