# This file uses centimeters as units for non-parametric coordinates.

mtllib Outside_Bend_LP.mtl
g default
v -1.000000 0.000000 0.000000
v -0.500000 0.000000 0.000000
v -0.002930 0.000000 0.005798
v -1.000000 1.000000 0.000000
v -0.500000 1.000000 0.000000
v -0.002930 0.585842 0.005798
v 0.163630 1.000000 -2.922837
v 0.489033 1.000000 -2.547076
v 0.816562 0.585842 -2.174127
v 0.161016 0.000000 -2.920132
v 0.485991 0.000000 -2.544075
v 0.816562 0.000000 -2.174131
v 3.000000 1.000000 -4.000000
v 3.000000 1.000000 -3.500002
v 3.000000 0.585842 -2.999911
v 3.000000 0.000000 -4.000010
v 3.000000 0.000000 -3.500011
v 3.000000 0.000000 -2.999918
v -0.684541 1.000000 -1.624916
v -0.685347 0.000000 -1.623717
v -0.240473 0.000000 -1.413619
v 0.201439 0.000000 -1.203806
v 0.201439 0.585842 -1.203804
v -0.239205 1.000000 -1.415188
v -0.916998 1.000000 -0.839691
v -0.916998 0.000000 -0.839234
v -0.433074 0.000000 -0.731252
v 0.044591 0.000000 -0.619544
v 0.044591 0.585842 -0.619544
v -0.432553 1.000000 -0.732053
v -0.321867 0.000000 -2.323779
v -0.320198 1.000000 -2.325779
v 0.071179 1.000000 -2.025992
v 0.461236 0.585842 -1.727151
v 0.461236 0.000000 -1.727154
v 0.069050 0.000000 -2.023667
v -0.979199 1.000000 -0.423406
v -0.979199 0.000000 -0.423406
v -0.482759 0.000000 -0.369987
v 0.006831 0.000000 -0.310577
v 0.006831 0.585842 -0.310577
v -0.482554 1.000000 -0.370429
v -0.818502 0.000000 -1.240564
v -0.818074 1.000000 -1.241358
v -0.351086 1.000000 -1.081355
v 0.109714 0.585842 -0.918163
v 0.109714 0.000000 -0.918164
v -0.351964 0.000000 -1.080174
v -0.518069 1.000000 -1.987271
v -0.519292 0.000000 -1.985664
v -0.099740 0.000000 -1.728885
v 0.318915 0.000000 -1.474149
v 0.318915 0.585842 -1.474147
v -0.098053 1.000000 -1.730839
v -0.094601 0.000000 -2.635887
v -0.092464 1.000000 -2.638255
v 0.267280 1.000000 -2.298655
v 0.627448 0.585842 -1.961015
v 0.627448 0.000000 -1.961018
v 0.264695 0.000000 -2.295980
v 1.426433 1.000000 -3.739565
v 1.426433 0.000000 -3.739573
v 1.602265 0.000000 -3.264826
v 1.779683 0.000000 -2.792552
v 1.779683 0.585842 -2.792545
v 1.603373 1.000000 -3.267385
v 0.750989 1.000000 -3.401018
v 0.750989 0.000000 -3.398860
v 1.000613 0.000000 -2.961414
v 1.259235 0.000000 -2.532450
v 1.259235 0.585842 -2.532444
v 1.004527 1.000000 -2.965004
v 2.179363 0.000000 -3.937479
v 2.179363 1.000000 -3.937470
v 2.272179 1.000000 -3.442832
v 2.365534 0.585842 -2.948640
v 2.365534 0.000000 -2.948647
v 2.272179 0.000000 -3.442842
v 0.446540 1.000000 -3.177917
v 0.443521 0.000000 -3.174858
v 0.731719 0.000000 -2.766369
v 1.027532 0.000000 -2.365039
v 1.027532 0.585842 -2.365035
v 0.735208 1.000000 -2.769673
v 1.077642 0.000000 -3.587146
v 1.077642 1.000000 -3.587139
v 1.295609 1.000000 -3.131787
v 1.510425 0.585842 -2.675242
v 1.510425 0.000000 -2.675248
v 1.291307 0.000000 -3.127920
v 1.794135 1.000000 -3.857300
v 1.794135 0.000000 -3.857309
v 1.929231 0.000000 -3.370144
v 2.065361 0.000000 -2.883771
v 2.065361 0.585842 -2.883764
v 1.929231 1.000000 -3.370135
v 2.582231 0.000000 -3.984622
v 2.582231 1.000000 -3.984612
v 2.630016 1.000000 -3.485867
v 2.677948 0.585842 -2.987261
v 2.677948 0.000000 -2.987268
v 2.630016 0.000000 -3.485876
vt 0.560238 0.013419
vt 0.481989 0.013447
vt 0.794985 0.013336
vt 0.716736 0.013364
vt 0.403741 0.013475
vt 0.896591 0.013300
vt 0.896758 0.482793
vt 0.482156 0.482941
vt 0.560405 0.482913
vt 0.988441 0.482761
vt 0.387401 0.019293
vt 0.387220 0.148537
vt 0.166789 0.018984
vt 0.166480 0.239596
vt 0.276786 0.239751
vt 0.277095 0.019139
vt 0.716903 0.482857
vt 0.795152 0.482829
vt 0.403907 0.482968
vt 0.988274 0.013267
vt 0.702450 0.509300
vt 0.780699 0.509272
vt 0.780866 0.978765
vt 0.702617 0.978793
vt 0.882305 0.509236
vt 0.882472 0.978729
vt 0.373890 0.974563
vt 0.262871 0.974493
vt 0.263010 0.752454
vt 0.374030 0.752524
vt 0.151909 0.882464
vt 0.151991 0.752385
vt 0.546119 0.978849
vt 0.467870 0.978877
vt 0.467703 0.509383
vt 0.545952 0.509356
vt 0.389621 0.978904
vt 0.389454 0.509411
vt 0.973988 0.509203
vt 0.974155 0.978697
vt 0.716820 0.248110
vt 0.560322 0.248166
vt 0.482073 0.248194
vt 0.403824 0.248222
vt 0.988358 0.248014
vt 0.896675 0.248047
vt 0.795068 0.248083
vt 0.716778 0.130737
vt 0.560280 0.130793
vt 0.482031 0.130821
vt 0.403782 0.130848
vt 0.988316 0.130641
vt 0.896633 0.130673
vt 0.795027 0.130709
vt 0.560364 0.365539
vt 0.716861 0.365484
vt 0.795110 0.365456
vt 0.896717 0.365420
vt 0.403866 0.365595
vt 0.988399 0.365387
vt 0.482115 0.365567
vt 0.716757 0.072050
vt 0.560259 0.072106
vt 0.482010 0.072134
vt 0.403761 0.072162
vt 0.988295 0.071954
vt 0.896612 0.071987
vt 0.795006 0.072023
vt 0.560301 0.189479
vt 0.716799 0.189424
vt 0.795048 0.189396
vt 0.896654 0.189360
vt 0.403803 0.189535
vt 0.988337 0.189327
vt 0.482052 0.189507
vt 0.716840 0.306797
vt 0.560343 0.306853
vt 0.482094 0.306881
vt 0.403845 0.306908
vt 0.988379 0.306701
vt 0.896696 0.306733
vt 0.795089 0.306769
vt 0.560384 0.424226
vt 0.716882 0.424170
vt 0.795131 0.424143
vt 0.896737 0.424106
vt 0.403887 0.424282
vt 0.988420 0.424074
vt 0.482135 0.424254
vt 0.702533 0.744047
vt 0.546036 0.744102
vt 0.467787 0.744130
vt 0.389538 0.744158
vt 0.974072 0.743950
vt 0.882389 0.743983
vt 0.780782 0.744019
vt 0.702492 0.626673
vt 0.545994 0.626729
vt 0.467745 0.626757
vt 0.389496 0.626785
vt 0.974030 0.626577
vt 0.882347 0.626609
vt 0.780740 0.626645
vt 0.546077 0.861476
vt 0.702575 0.861420
vt 0.780824 0.861392
vt 0.882430 0.861356
vt 0.389580 0.861531
vt 0.974113 0.861323
vt 0.467828 0.861503
vt 0.702471 0.567987
vt 0.545973 0.568042
vt 0.467724 0.568070
vt 0.389475 0.568098
vt 0.974009 0.567890
vt 0.882326 0.567923
vt 0.780720 0.567959
vt 0.546015 0.685416
vt 0.702513 0.685360
vt 0.780761 0.685332
vt 0.882368 0.685296
vt 0.389517 0.685471
vt 0.974051 0.685263
vt 0.467766 0.685443
vt 0.702554 0.802733
vt 0.546056 0.802789
vt 0.467808 0.802817
vt 0.389559 0.802845
vt 0.974092 0.802637
vt 0.882409 0.802669
vt 0.780803 0.802705
vt 0.546098 0.920162
vt 0.702596 0.920107
vt 0.780845 0.920079
vt 0.882451 0.920043
vt 0.389600 0.920218
vt 0.974134 0.920010
vt 0.467849 0.920190
vn 0.000000 0.000000 1.000000
vn -0.005142 0.000000 0.999987
vn -0.003562 0.000000 0.999994
vn 0.000000 0.000000 1.000000
vn -0.011664 0.000000 0.999932
vn -0.011664 0.000000 0.999932
vn 0.000000 1.000000 -0.000000
vn 0.352392 0.935748 0.013959
vn 0.350880 0.935941 0.029954
vn 0.000000 1.000000 0.000000
vn 0.641852 0.766407 0.025426
vn 0.641129 0.765555 0.053669
vn 0.000000 -1.000000 0.000000
vn 0.000000 -1.000000 0.000000
vn 0.000000 -1.000000 0.000000
vn 0.000000 -1.000000 0.000000
vn 0.000000 -1.000000 0.000000
vn 0.000000 -1.000000 0.000000
vn 0.999524 -0.000000 0.030839
vn 0.997125 -0.000000 0.075775
vn 0.997125 -0.000000 0.075775
vn 0.999524 -0.000000 0.030839
vn -0.995147 -0.000017 -0.098396
vn -0.995147 -0.000017 -0.098396
vn -0.998795 0.000000 -0.049068
vn -0.998795 0.000000 -0.049068
vn 0.000000 1.000000 0.000000
vn 0.244366 0.931290 0.270155
vn 0.219654 0.936899 0.271978
vn 0.000000 1.000000 0.000000
vn 0.429831 0.767747 0.475195
vn 0.402949 0.769206 0.495938
vn 1.000000 0.000000 0.000000
vn 1.000000 0.000000 0.000000
vn 1.000000 0.000000 0.000000
vn 1.000000 0.000000 0.000000
vn 1.000000 0.000000 0.000000
vn 1.000000 0.000000 0.000000
vn 0.000000 -1.000000 0.000000
vn 0.000000 -1.000000 0.000000
vn 0.000000 -1.000000 0.000000
vn 0.000000 -1.000000 0.000000
vn 0.000000 -1.000000 0.000000
vn 0.000000 -1.000000 0.000000
vn 0.670972 -0.000006 0.741483
vn 0.629160 -0.000006 0.777276
vn 0.629160 -0.000006 0.777276
vn 0.670972 -0.000006 0.741483
vn -0.630614 -0.000736 -0.776097
vn -0.630830 -0.000734 -0.775921
vn -0.669641 -0.000255 -0.742685
vn -0.669641 -0.000255 -0.742685
vn -0.743447 0.000069 -0.668795
vn -0.777114 0.000161 -0.629359
vn -0.776983 0.000161 -0.629522
vn -0.743447 0.000069 -0.668795
vn 0.000000 -1.000000 0.000000
vn 0.000000 -1.000000 0.000000
vn 0.000000 -1.000000 0.000000
vn 0.000000 -1.000000 0.000000
vn 0.000000 -1.000000 0.000000
vn 0.000000 -1.000000 0.000000
vn 0.782792 -0.000004 0.622284
vn 0.782792 -0.000004 0.622284
vn 0.747967 -0.000004 0.663736
vn 0.747967 -0.000004 0.663736
vn 0.275012 0.935796 0.220575
vn 0.503845 0.765220 0.400723
vn 0.480397 0.765719 0.427659
vn 0.252902 0.940932 0.225139
vn 0.000000 1.000000 0.000000
vn 0.000000 1.000000 0.000000
vn -0.927856 0.000296 -0.372938
vn -0.927888 0.000296 -0.372858
vn -0.958970 0.000156 -0.283507
vn -0.958955 0.000157 -0.283557
vn 0.000000 -1.000000 0.000000
vn 0.000000 -1.000000 0.000000
vn 0.000000 -1.000000 0.000000
vn 0.000000 -1.000000 0.000000
vn 0.000000 -1.000000 0.000000
vn 0.000000 -1.000000 0.000000
vn 0.965804 -0.000001 0.259274
vn 0.965804 -0.000001 0.259274
vn 0.935937 -0.000001 0.352166
vn 0.935938 -0.000001 0.352166
vn 0.341486 0.935082 0.094913
vn 0.624126 0.762320 0.171277
vn 0.605135 0.761983 0.230636
vn 0.331134 0.934907 0.127671
vn 0.000000 1.000000 0.000000
vn 0.000000 1.000000 -0.000000
vn -0.887359 0.000338 -0.461080
vn -0.887416 0.000338 -0.460969
vn 0.316542 0.934996 0.159951
vn 0.000000 1.000000 -0.000000
vn 0.578736 0.762447 0.289378
vn 0.895708 -0.000002 0.444642
vn 0.895708 -0.000002 0.444642
vn 0.000000 -1.000000 0.000000
vn 0.000000 -1.000000 0.000000
vn 0.000000 -1.000000 0.000000
vn -0.981174 0.000012 -0.193128
vn -0.981179 0.000012 -0.193102
vn 0.000000 -1.000000 0.000000
vn 0.000000 -1.000000 0.000000
vn 0.000000 -1.000000 0.000000
vn 0.985965 -0.000000 0.166954
vn 0.985965 -0.000000 0.166954
vn 0.635974 0.763521 0.112124
vn 0.347762 0.935517 0.062209
vn 0.000000 1.000000 0.000000
vn -0.837069 0.000296 -0.547097
vn -0.837160 0.000296 -0.546958
vn 0.000000 -1.000000 0.000000
vn 0.000000 -1.000000 0.000000
vn 0.000000 -1.000000 0.000000
vn 0.844675 -0.000003 0.535279
vn 0.844675 -0.000003 0.535279
vn 0.544887 0.763582 0.346467
vn 0.297757 0.935312 0.191136
vn 0.000000 1.000000 0.000000
vn -0.036809 0.000010 -0.999322
vn -0.075977 0.000010 -0.997110
vn -0.075977 0.000010 -0.997110
vn -0.036809 0.000010 -0.999322
vn 0.000000 -1.000000 0.000000
vn 0.000000 -1.000000 0.000000
vn 0.000000 -1.000000 0.000000
vn 0.000000 -1.000000 0.000000
vn 0.000000 -1.000000 0.000000
vn 0.000000 -1.000000 0.000000
vn 0.080548 -0.000012 0.996751
vn 0.080548 -0.000012 0.996751
vn 0.039250 -0.000013 0.999229
vn 0.039250 -0.000013 0.999229
vn 0.028142 0.935584 0.351982
vn 0.050372 0.770752 0.635141
vn 0.024674 0.770057 0.637498
vn 0.013694 0.935214 0.353817
vn 0.000000 1.000000 0.000000
vn 0.000000 1.000000 0.000000
vn -0.352814 0.000008 -0.935694
vn -0.352814 0.000008 -0.935694
vn -0.449231 -0.000461 -0.893415
vn -0.449231 -0.000461 -0.893415
vn 0.000000 -1.000000 0.000000
vn 0.000000 -1.000000 0.000000
vn 0.000000 -1.000000 0.000000
vn 0.000000 -1.000000 0.000000
vn 0.000000 -1.000000 0.000000
vn 0.000000 -1.000000 0.000000
vn 0.447045 -0.000009 0.894511
vn 0.447045 -0.000009 0.894512
vn 0.351746 -0.000010 0.936095
vn 0.351747 -0.000010 0.936095
vn 0.156225 0.937332 0.311453
vn 0.285276 0.772878 0.566813
vn 0.222997 0.773775 0.592911
vn 0.122400 0.937525 0.325676
vn 0.000000 1.000000 0.000000
vn 0.000000 1.000000 0.000000
vn -0.254212 0.000008 -0.967148
vn -0.254212 0.000008 -0.967149
vn 0.089527 0.936779 0.338275
vn 0.000000 1.000000 0.000000
vn 0.161846 0.773200 0.613163
vn 0.257459 -0.000011 0.966289
vn 0.257459 -0.000011 0.966289
vn 0.000000 -1.000000 0.000000
vn 0.000000 -1.000000 0.000000
vn 0.000000 -1.000000 0.000000
vn -0.544541 -0.001076 -0.838734
vn -0.544610 -0.001076 -0.838688
vn 0.000000 -1.000000 0.000000
vn 0.000000 -1.000000 0.000000
vn 0.000000 -1.000000 0.000000
vn 0.540483 -0.000008 0.841355
vn 0.540483 -0.000008 0.841355
vn 0.345400 0.771162 0.534797
vn 0.188625 0.937185 0.293435
vn 0.000000 1.000000 0.000000
vn -0.159477 0.000009 -0.987202
vn -0.159477 0.000009 -0.987202
vn 0.000000 -1.000000 0.000000
vn 0.000000 -1.000000 0.000000
vn 0.000000 -1.000000 0.000000
vn 0.166589 -0.000012 0.986026
vn 0.166589 -0.000012 0.986026
vn 0.104418 0.771894 0.627118
vn 0.058076 0.936121 0.346850
vn 0.000000 1.000000 0.000000
s 1
g Outside_Bend_LP
usemtl initialShadingGroup
f 1/13/1 2/16/2 5/15/3 4/14/4
f 2/16/2 3/11/5 6/12/6 5/15/3
s 2
f 4/4/7 5/3/8 42/68/9 37/62/10
f 5/3/8 6/6/11 41/67/12 42/68/9
s 3
f 38/63/13 39/64/14 2/2/15 1/1/16
f 39/64/14 40/65/17 3/5/18 2/2/15
s 4
f 3/20/19 40/66/20 41/67/21 6/6/22
s 5
f 37/62/23 38/63/24 1/1/25 4/4/26
s 6
f 7/21/27 8/22/28 84/117/29 79/111/30
f 8/22/28 9/25/31 83/116/32 84/117/29
s 7
f 13/27/33 14/28/34 17/29/35 16/30/36
f 14/28/34 15/31/37 18/32/38 17/29/35
s 8
f 80/112/39 81/113/40 11/35/41 10/36/42
f 81/113/40 82/114/43 12/38/44 11/35/41
s 9
f 12/39/45 82/115/46 83/116/47 9/25/48
s 10
f 79/111/49 80/112/50 10/36/51 7/21/52
s 5
f 10/9/53 55/83/54 56/84/55 7/17/56
s 3
f 10/9/57 11/8/58 60/89/59 55/83/60
f 11/8/58 12/19/61 59/87/62 60/89/59
s 4
f 58/86/63 59/88/64 12/10/65 9/7/66
s 2
f 57/85/67 58/86/68 9/7/69 8/18/70
f 56/84/71 57/85/67 8/18/70 7/17/72
s 5
f 19/41/73 20/42/74 43/69/75 44/70/76
s 3
f 20/42/77 21/43/78 48/75/79 43/69/80
f 21/43/78 22/44/81 47/73/82 48/75/79
s 4
f 46/72/83 47/74/84 22/45/85 23/46/86
s 2
f 45/71/87 46/72/88 23/46/89 24/47/90
f 44/70/91 45/71/87 24/47/90 19/41/92
s 5
f 49/76/93 50/77/94 20/42/74 19/41/73
s 2
f 19/41/92 24/47/90 54/82/95 49/76/96
f 24/47/90 23/46/89 53/81/97 54/82/95
s 4
f 23/46/86 22/45/85 52/80/98 53/81/99
s 3
f 51/78/100 52/79/101 22/44/81 21/43/78
f 50/77/102 51/78/100 21/43/78 20/42/77
s 5
f 25/48/103 26/49/104 38/63/24 37/62/23
s 3
f 26/49/105 27/50/106 39/64/14 38/63/13
f 27/50/106 28/51/107 40/65/17 39/64/14
s 4
f 41/67/21 40/66/20 28/52/108 29/53/109
s 2
f 42/68/9 41/67/12 29/53/110 30/54/111
f 37/62/10 42/68/9 30/54/111 25/48/112
s 5
f 44/70/76 43/69/75 26/49/104 25/48/103
s 2
f 25/48/112 30/54/111 45/71/87 44/70/91
f 30/54/111 29/53/110 46/72/88 45/71/87
s 4
f 29/53/109 28/52/108 47/74/84 46/72/83
s 3
f 48/75/79 47/73/82 28/51/107 27/50/106
f 43/69/80 48/75/79 27/50/106 26/49/105
s 5
f 32/56/113 31/55/114 50/77/94 49/76/93
s 3
f 31/55/115 36/61/116 51/78/100 50/77/102
f 36/61/116 35/59/117 52/79/101 51/78/100
s 4
f 53/81/99 52/80/98 35/60/118 34/58/119
s 2
f 54/82/95 53/81/97 34/58/120 33/57/121
f 49/76/96 54/82/95 33/57/121 32/56/122
s 5
f 56/84/55 55/83/54 31/55/114 32/56/113
s 2
f 32/56/122 33/57/121 57/85/67 56/84/71
f 33/57/121 34/58/120 58/86/68 57/85/67
s 4
f 34/58/119 35/60/118 59/88/64 58/86/63
s 3
f 60/89/59 59/87/62 35/59/117 36/61/116
f 55/83/60 60/89/59 36/61/116 31/55/115
s 10
f 16/33/123 97/132/124 98/133/125 13/24/126
s 8
f 16/33/127 17/34/128 102/138/129 97/132/130
f 17/34/128 18/37/131 101/136/132 102/138/129
s 9
f 100/135/133 101/137/134 18/40/135 15/26/136
s 6
f 99/134/137 100/135/138 15/26/139 14/23/140
f 98/133/141 99/134/137 14/23/140 13/24/142
s 10
f 61/90/143 62/91/144 85/118/145 86/119/146
s 8
f 62/91/147 63/92/148 90/124/149 85/118/150
f 63/92/148 64/93/151 89/122/152 90/124/149
s 9
f 88/121/153 89/123/154 64/94/155 65/95/156
s 6
f 87/120/157 88/121/158 65/95/159 66/96/160
f 86/119/161 87/120/157 66/96/160 61/90/162
s 10
f 91/125/163 92/126/164 62/91/144 61/90/143
s 6
f 61/90/162 66/96/160 96/131/165 91/125/166
f 66/96/160 65/95/159 95/130/167 96/131/165
s 9
f 65/95/156 64/94/155 94/129/168 95/130/169
s 8
f 93/127/170 94/128/171 64/93/151 63/92/148
f 92/126/172 93/127/170 63/92/148 62/91/147
s 10
f 67/97/173 68/98/174 80/112/50 79/111/49
s 8
f 68/98/175 69/99/176 81/113/40 80/112/39
f 69/99/176 70/100/177 82/114/43 81/113/40
s 9
f 83/116/47 82/115/46 70/101/178 71/102/179
s 6
f 84/117/29 83/116/32 71/102/180 72/103/181
f 79/111/30 84/117/29 72/103/181 67/97/182
s 10
f 86/119/146 85/118/145 68/98/174 67/97/173
s 6
f 67/97/182 72/103/181 87/120/157 86/119/161
f 72/103/181 71/102/180 88/121/158 87/120/157
s 9
f 71/102/179 70/101/178 89/123/154 88/121/153
s 8
f 90/124/149 89/122/152 70/100/177 69/99/176
f 85/118/150 90/124/149 69/99/176 68/98/175
s 10
f 74/105/183 73/104/184 92/126/164 91/125/163
s 8
f 73/104/185 78/110/186 93/127/170 92/126/172
f 78/110/186 77/108/187 94/128/171 93/127/170
s 9
f 95/130/169 94/129/168 77/109/188 76/107/189
s 6
f 96/131/165 95/130/167 76/107/190 75/106/191
f 91/125/166 96/131/165 75/106/191 74/105/192
s 10
f 98/133/125 97/132/124 73/104/184 74/105/183
s 6
f 74/105/192 75/106/191 99/134/137 98/133/141
f 75/106/191 76/107/190 100/135/138 99/134/137
s 9
f 76/107/189 77/109/188 101/137/134 100/135/133
s 8
f 102/138/129 101/136/132 77/108/187 78/110/186
f 97/132/130 102/138/129 78/110/186 73/104/185
